<svg height="512pt" viewBox="0 0 512.00222 512" width="512pt" xmlns="http://www.w3.org/2000/svg"><path d="m503.46875 418.132812h-494.933594l34.132813-76.796874 2.730469-6.144532 31.402343-70.65625h358.398438l31.40625 70.65625 2.730469 6.144532zm0 0" fill="#c52828"/><path d="m435.199219 341.972656v35.839844c0 14.789062-10.035157 28.675781-27.304688 40.320312h-303.785156c-17.273437-11.644531-27.308594-25.53125-27.308594-40.320312v-35.839844zm0 0" fill="#ffeb3a"/><path d="m435.199219 341.972656c0-42.058594-80.230469-76.160156-179.199219-76.160156s-179.199219 34.101562-179.199219 76.160156c0 42.0625 80.230469 76.160156 179.199219 76.160156s179.199219-34.097656 179.199219-76.160156zm0 0" fill="#ffeb3a"/><path d="m256 392.535156c-95.164062 0-153.597656-29.816406-153.597656-51.199218 0-21.386719 58.433594-51.203126 153.597656-51.203126s153.601562 29.824219 153.601562 51.203126c0 21.375-58.4375 51.199218-153.601562 51.199218zm0 0" fill="#ff5722"/><path d="m256 375.46875c-90.367188 0-134.773438-26.042969-136.53125-34.320312 1.757812-7.902344 46.164062-33.949219 136.53125-33.949219s134.777344 26.046875 136.535156 34.324219c-1.757812 7.902343-46.167968 33.945312-136.535156 33.945312zm0 0" fill="#fec108"/><path d="m503.46875 418.132812v76.800782c0 4.714844-3.820312 8.535156-8.535156 8.535156h-477.867188c-4.710937 0-8.53125-3.820312-8.53125-8.535156v-76.800782zm0 0" fill="#c52828"/><path d="m477.867188 418.132812v76.800782c0 4.714844-3.820313 8.535156-8.53125 8.535156h-452.269532c-4.710937 0-8.53125-3.820312-8.53125-8.535156v-76.800782zm0 0" fill="#f44335"/><path d="m480.683594 93.867188-45.484375 170.667968h-358.398438l-45.480469-170.667968zm0 0" fill="#c52828"/><path d="m457.898438 93.867188-45.480469 170.667968h-335.617188l-45.480469-170.667968zm0 0" fill="#f44335"/><path d="m503.46875 25.601562v68.265626h-494.933594v-68.265626c.027344-9.414062 7.652344-17.039062 17.066406-17.066406h460.800782c9.414062.027344 17.039062 7.652344 17.066406 17.066406zm0 0" fill="#c52828"/><path d="m477.867188 25.601562v68.265626h-469.332032v-68.265626c.027344-9.414062 7.652344-17.039062 17.066406-17.066406h435.199219c9.414063.027344 17.039063 7.652344 17.066407 17.066406zm0 0" fill="#f44335"/><path d="m204.800781 51.199219h102.398438c9.425781 0 17.070312 7.644531 17.070312 17.070312v25.597657h-136.535156v-25.597657c0-9.425781 7.640625-17.070312 17.066406-17.070312zm0 0" fill="#c52828"/><path d="m256 426.667969c-105.265625 0-187.730469-37.195313-187.730469-84.695313 0-47.496094 82.464844-84.691406 187.730469-84.691406 105.269531 0 187.734375 37.207031 187.734375 84.691406 0 47.488282-82.464844 84.695313-187.734375 84.695313zm0-152.320313c-102.082031 0-170.664062 34.988282-170.664062 67.625 0 32.640625 68.582031 67.628906 170.664062 67.628906 102.085938 0 170.667969-34.988281 170.667969-67.628906 0-32.636718-68.582031-67.625-170.667969-67.625zm0 0"/><path d="m407.894531 426.667969c-3.757812.003906-7.074219-2.449219-8.171875-6.039063-1.097656-3.59375.285156-7.480468 3.402344-9.578125 10.742188-7.234375 23.542969-18.875 23.542969-33.238281 0-4.710938 3.820312-8.53125 8.53125-8.53125 4.714843 0 8.535156 3.820312 8.535156 8.53125 0 17.308594-10.75 33.699219-31.09375 47.40625-1.40625.941406-3.054687 1.445312-4.746094 1.449219zm0 0"/><path d="m104.109375 426.667969c-1.699219 0-3.355469-.503907-4.761719-1.449219-20.328125-13.707031-31.078125-30.125-31.078125-47.40625 0-4.710938 3.820313-8.53125 8.53125-8.53125 4.714844 0 8.535157 3.820312 8.535157 8.53125 0 14.363281 12.796874 26.003906 23.558593 33.28125 3.082031 2.109375 4.433594 5.980469 3.335938 9.546875-1.097657 3.570313-4.390625 6.011719-8.121094 6.027344zm0 0"/><path d="m76.800781 386.347656c-4.710937 0-8.53125-3.820312-8.53125-8.535156v-35.839844c0-4.710937 3.820313-8.53125 8.53125-8.53125 4.714844 0 8.535157 3.820313 8.535157 8.53125v35.839844c0 4.714844-3.820313 8.535156-8.535157 8.535156zm0 0"/><path d="m435.199219 386.347656c-4.710938 0-8.53125-3.820312-8.53125-8.535156v-35.839844c0-4.710937 3.820312-8.53125 8.53125-8.53125 4.714843 0 8.535156 3.820313 8.535156 8.53125v35.839844c0 4.714844-3.820313 8.535156-8.535156 8.535156zm0 0"/><path d="m256 426.667969c-4.710938 0-8.53125-3.820313-8.53125-8.535157v-152.320312c0-4.710938 3.820312-8.53125 8.53125-8.53125 4.714844 0 8.535156 3.820312 8.535156 8.53125v152.320312c0 4.714844-3.820312 8.535157-8.535156 8.535157zm0 0"/><path d="m139.886719 408.484375c-3.820313.003906-7.179688-2.53125-8.222657-6.207031-1.039062-3.675782.488282-7.597656 3.742188-9.597656l101.429688-62.378907-99.839844-38.398437c-4.277344-1.773438-6.363282-6.628906-4.703125-10.949219 1.664062-4.320313 6.46875-6.527344 10.828125-4.976563l115.945312 44.621094c3.027344 1.164063 5.132813 3.949219 5.429688 7.179688.300781 3.230468-1.257813 6.351562-4.023438 8.054687l-116.121094 71.386719c-1.34375.828125-2.886718 1.261719-4.464843 1.265625zm0 0"/><path d="m77.152344 346.027344c-4.714844.117187-8.628906-3.609375-8.742188-8.324219-.117187-4.710937 3.609375-8.625 8.324219-8.742187l178.839844-8.960938c4.695312-.183594 8.675781 3.417969 8.960937 8.109375.117188 2.261719-.675781 4.480469-2.195312 6.160156-1.519532 1.679688-3.648438 2.6875-5.910156 2.796875l-178.84375 8.945313zm0 0"/><path d="m372.113281 408.484375c-1.574219-.003906-3.121093-.4375-4.460937-1.265625l-116.121094-71.414062c-2.765625-1.699219-4.324219-4.820313-4.027344-8.054688.300782-3.230469 2.40625-6.011719 5.433594-7.175781l115.941406-44.621094c2.867188-1.1875 6.148438-.726563 8.574219 1.203125s3.617187 5.019531 3.109375 8.078125-2.636719 5.601563-5.554688 6.640625l-99.839843 38.398438 101.425781 62.378906c3.257812 2.003906 4.785156 5.921875 3.742188 9.597656-1.042969 3.679688-4.402344 6.214844-8.222657 6.207031zm0 0"/><path d="m434.851562 346.027344h-.433593l-178.84375-8.960938c-2.265625-.109375-4.390625-1.117187-5.910157-2.796875-1.523437-1.679687-2.3125-3.898437-2.195312-6.160156.292969-4.6875 4.269531-8.285156 8.960938-8.109375l178.839843 8.960938c4.710938.117187 8.441407 4.03125 8.324219 8.742187-.117188 4.714844-4.03125 8.441406-8.742188 8.324219zm0 0"/><path d="m264.535156 426.667969h-256c-2.890625 0-5.582031-1.460938-7.15625-3.882813-1.574218-2.421875-1.816406-5.476562-.644531-8.117187l68.265625-153.597657c1.371094-3.082031 4.429688-5.070312 7.800781-5.070312h179.199219c4.714844 0 8.535156 3.820312 8.535156 8.535156 0 4.710938-3.820312 8.53125-8.535156 8.53125h-173.652344l-60.679687 136.535156h242.867187c4.710938 0 8.53125 3.820313 8.53125 8.53125 0 4.714844-3.820312 8.535157-8.53125 8.535157zm0 0"/><path d="m503.46875 426.667969h-256c-4.714844 0-8.535156-3.820313-8.535156-8.535157 0-4.710937 3.820312-8.53125 8.535156-8.53125h242.867188l-60.679688-136.535156h-173.65625c-4.710938 0-8.53125-3.820312-8.53125-8.53125 0-4.714844 3.820312-8.535156 8.53125-8.535156h179.199219c3.375 0 6.433593 1.988281 7.800781 5.070312l68.265625 153.597657c1.175781 2.640625.933594 5.695312-.640625 8.117187s-4.269531 3.882813-7.15625 3.882813zm0 0"/><path d="m494.933594 512h-477.867188c-9.425781 0-17.066406-7.640625-17.066406-17.066406v-76.800782c0-4.710937 3.820312-8.53125 8.535156-8.53125h494.933594c4.710938 0 8.53125 3.820313 8.53125 8.53125v76.800782c0 9.425781-7.640625 17.066406-17.066406 17.066406zm-477.867188-85.332031v68.265625h477.867188v-68.265625zm0 0"/><path d="m21.335938 469.335938h-12.800782c-4.714844 0-8.535156-3.820313-8.535156-8.535157 0-4.710937 3.820312-8.53125 8.535156-8.53125h12.800782c4.710937 0 8.53125 3.820313 8.53125 8.53125 0 4.714844-3.820313 8.535157-8.53125 8.535157zm0 0"/><path d="m455.246094 469.335938h-26.5625c-4.714844 0-8.535156-3.820313-8.535156-8.535157 0-4.710937 3.820312-8.53125 8.535156-8.53125h26.5625c4.710937 0 8.53125 3.820313 8.53125 8.53125 0 4.714844-3.820313 8.535157-8.53125 8.535157zm-61.984375 0h-26.566407c-4.710937 0-8.53125-3.820313-8.53125-8.535157 0-4.710937 3.820313-8.53125 8.53125-8.53125h26.566407c4.710937 0 8.53125 3.820313 8.53125 8.53125 0 4.714844-3.820313 8.535157-8.53125 8.535157zm-61.988281 0h-26.5625c-4.714844 0-8.535157-3.820313-8.535157-8.535157 0-4.710937 3.820313-8.53125 8.535157-8.53125h26.5625c4.714843 0 8.535156 3.820313 8.535156 8.53125 0 4.714844-3.820313 8.535157-8.535156 8.535157zm-61.984376 0h-26.574218c-4.714844 0-8.535156-3.820313-8.535156-8.535157 0-4.710937 3.820312-8.53125 8.535156-8.53125h26.574218c4.710938 0 8.53125 3.820313 8.53125 8.53125 0 4.714844-3.820312 8.535157-8.53125 8.535157zm-61.996093 0h-26.5625c-4.714844 0-8.535157-3.820313-8.535157-8.535157 0-4.710937 3.820313-8.53125 8.535157-8.53125h26.5625c4.710937 0 8.535156 3.820313 8.535156 8.53125 0 4.714844-3.824219 8.535157-8.535156 8.535157zm-61.984375 0h-26.566406c-4.710938 0-8.53125-3.820313-8.53125-8.535157 0-4.710937 3.820312-8.53125 8.53125-8.53125h26.566406c4.710937 0 8.53125 3.820313 8.53125 8.53125 0 4.714844-3.820313 8.535157-8.53125 8.535157zm-61.988282 0h-26.5625c-4.714843 0-8.535156-3.820313-8.535156-8.535157 0-4.710937 3.820313-8.53125 8.535156-8.53125h26.5625c4.714844 0 8.535157 3.820313 8.535157 8.53125 0 4.714844-3.820313 8.535157-8.535157 8.535157zm0 0"/><path d="m503.46875 469.335938h-12.800781c-4.714844 0-8.535157-3.820313-8.535157-8.535157 0-4.710937 3.820313-8.53125 8.535157-8.53125h12.800781c4.710938 0 8.53125 3.820313 8.53125 8.53125 0 4.714844-3.820312 8.535157-8.53125 8.535157zm0 0"/><path d="m256 17.066406h-230.398438c-4.714843 0-8.535156-3.820312-8.535156-8.53125 0-4.714844 3.820313-8.535156 8.535156-8.535156h230.398438c4.714844 0 8.535156 3.820312 8.535156 8.535156 0 4.710938-3.820312 8.53125-8.535156 8.53125zm0 0"/><path d="m76.800781 273.066406c-3.867187 0-7.25-2.601562-8.242187-6.339844l-45.484375-170.664062c-1.058594-4.496094 1.648437-9.019531 6.113281-10.207031 4.460938-1.1875 9.0625 1.390625 10.375 5.820312l45.480469 170.664063c.683593 2.5625.136719 5.292968-1.480469 7.394531-1.613281 2.101563-4.113281 3.332031-6.761719 3.332031zm0 0"/><path d="m486.402344 17.066406h-230.402344c-4.710938 0-8.53125-3.820312-8.53125-8.53125 0-4.714844 3.820312-8.535156 8.53125-8.535156h230.402344c4.710937 0 8.53125 3.820312 8.53125 8.535156 0 4.710938-3.820313 8.53125-8.53125 8.53125zm0 0"/><path d="m435.199219 273.066406c-2.648438 0-5.144531-1.230468-6.761719-3.332031-1.613281-2.101563-2.160156-4.832031-1.480469-7.394531l45.484375-170.664063c1.3125-4.429687 5.910156-7.007812 10.375-5.820312s7.171875 5.710937 6.109375 10.207031l-45.480469 170.664062c-.996093 3.738282-4.378906 6.339844-8.246093 6.339844zm0 0"/><path d="m503.46875 102.402344h-494.933594c-4.714844 0-8.535156-3.820313-8.535156-8.535156v-68.265626c0-14.140624 11.460938-25.601562 25.601562-25.601562h460.800782c14.136718 0 25.597656 11.460938 25.597656 25.601562v68.265626c0 4.714843-3.820312 8.535156-8.53125 8.535156zm-486.402344-17.066406h477.867188v-59.734376c0-4.714843-3.820313-8.535156-8.53125-8.535156h-460.800782c-4.714843 0-8.535156 3.820313-8.535156 8.535156zm0 0"/><path d="m324.269531 102.402344h-136.535156c-4.710937 0-8.535156-3.820313-8.535156-8.535156v-25.597657c0-14.140625 11.464843-25.601562 25.601562-25.601562h102.398438c14.140625 0 25.601562 11.460937 25.601562 25.601562v25.597657c0 4.714843-3.820312 8.535156-8.53125 8.535156zm-128-17.066406h119.464844v-17.066407c0-4.714843-3.820313-8.535156-8.535156-8.535156h-102.398438c-4.710937 0-8.53125 3.820313-8.53125 8.535156zm0 0"/></svg>