<?xml version="1.0" standalone="no"?>
<!DOCTYPE svg PUBLIC "-//W3C//DTD SVG 20010904//EN"
 "http://www.w3.org/TR/2001/REC-SVG-20010904/DTD/svg10.dtd">
<svg version="1.0" xmlns="http://www.w3.org/2000/svg"
 width="256.000000pt" height="256.000000pt" viewBox="0 0 256.000000 256.000000"
 preserveAspectRatio="xMidYMid meet">

<g transform="translate(0.000000,256.000000) scale(0.100000,-0.100000)"
fill="#000000" stroke="none">
<path d="M901 1899 c-70 -28 -131 -114 -131 -184 0 -97 69 -184 161 -205 194
-43 331 193 196 338 -51 55 -157 79 -226 51z"/>
<path d="M1469 1417 c-157 -83 -137 -316 33 -373 169 -56 324 118 249 281 -48
104 -178 147 -282 92z"/>
<path d="M829 1147 c-54 -29 -99 -98 -106 -162 -15 -126 105 -240 232 -220
136 20 214 165 156 290 -48 104 -178 147 -282 92z"/>
</g>
</svg>
